<?xml version="1.0" encoding="UTF-8" standalone="no"?>
<!-- Created with Inkscape (http://www.inkscape.org/) -->

<svg
   version="1.1"
   id="svg9415"
   width="800"
   height="800"
   viewBox="0 0 800 800"
   sodipodi:docname="plant-pot-top-view-publicdomainvectors.org.svg"
   inkscape:version="1.2 (dc2aedaf03, 2022-05-15)"
   xmlns:inkscape="http://www.inkscape.org/namespaces/inkscape"
   xmlns:sodipodi="http://sodipodi.sourceforge.net/DTD/sodipodi-0.dtd"
   xmlns="http://www.w3.org/2000/svg"
   xmlns:svg="http://www.w3.org/2000/svg">
  <defs
     id="defs9419">
    <clipPath
       clipPathUnits="userSpaceOnUse"
       id="clipPath9431">
      <path
         d="M 0,600 H 600 V 0 H 0 Z"
         id="path9429" />
    </clipPath>
  </defs>
  <sodipodi:namedview
     id="namedview9417"
     pagecolor="#ffffff"
     bordercolor="#000000"
     borderopacity="0.25"
     inkscape:showpageshadow="2"
     inkscape:pageopacity="0.0"
     inkscape:pagecheckerboard="0"
     inkscape:deskcolor="#d1d1d1"
     showgrid="false"
     inkscape:zoom="1.04625"
     inkscape:cx="400"
     inkscape:cy="400.4779"
     inkscape:window-width="1920"
     inkscape:window-height="1017"
     inkscape:window-x="-8"
     inkscape:window-y="-8"
     inkscape:window-maximized="1"
     inkscape:current-layer="g9423">
    <inkscape:page
       x="0"
       y="0"
       id="page9421"
       width="800"
       height="800" />
  </sodipodi:namedview>
  <g
     id="g9423"
     inkscape:groupmode="layer"
     inkscape:label="Page 1"
     transform="matrix(1.3333333,0,0,-1.3333333,0,800)">
    <g
       id="g9425">
      <g
         id="g9427"
         clip-path="url(#clipPath9431)">
        <g
           id="g9433"
           transform="translate(232.2275,454.6392)">
          <path
             d="m 0,0 c 11.504,14.03 24.482,26.093 38.426,36.125 2.109,30.495 10.904,61.1 16.762,89.718 11.734,-18.771 42.737,-33.548 69.28,-55.269 17.148,2.198 34.334,1.82 50.928,-1.237 18.644,16.412 39.201,30.37 57.679,44.667 -4.641,-18.088 0.3,-43.074 2.692,-70.451 1.447,-1.059 2.883,-2.144 4.299,-3.264 12.641,-9.977 23.138,-21.689 31.488,-34.625 30.238,1.541 59.783,-3.686 87.693,-6.176 -20.187,-14.171 -38.707,-47.408 -63.632,-76.962 0.128,-17.133 -2.325,-34.614 -7.386,-51.819 14.163,-16.935 25.638,-36.106 37.706,-53.126 -17.528,2.525 -43.112,-5.504 -70.777,-11.236 -1.233,-1.598 -2.492,-3.184 -3.783,-4.758 -11.503,-14.027 -24.48,-26.091 -38.426,-36.124 -2.109,-30.494 -10.903,-61.099 -16.761,-89.716 -11.735,18.77 -42.738,33.546 -69.282,55.267 -17.146,-2.197 -34.333,-1.819 -50.927,1.238 -18.644,-16.413 -39.2,-30.37 -57.678,-44.667 4.641,18.086 -0.301,43.074 -2.691,70.452 -1.449,1.057 -2.883,2.143 -4.3,3.262 -12.641,9.977 -23.138,21.688 -31.487,34.626 -30.239,-1.542 -59.783,3.687 -87.694,6.175 20.187,14.171 38.707,47.409 63.632,76.961 -0.128,17.133 2.326,34.615 7.385,51.82 -14.163,16.935 -25.638,36.106 -37.705,53.127 17.528,-2.526 43.111,5.505 70.777,11.235 C -2.549,-3.159 -1.29,-1.573 0,0"
             style="fill:#f5f4ef;fill-opacity:1;fill-rule:evenodd;stroke:none"
             id="path9435" />
        </g>
        <g
           id="g9437"
           transform="translate(176.6064,432.6484)">
          <path
             d="m 0,0 c 63.17,69.416 170.65,74.479 240.066,11.309 69.416,-63.17 74.479,-170.651 11.309,-240.066 -63.17,-69.416 -170.651,-74.479 -240.066,-11.31 C -58.107,-176.896 -63.17,-69.415 0,0"
             style="fill:#945d29;fill-opacity:1;fill-rule:evenodd;stroke:none"
             id="path9439" />
        </g>
        <g
           id="g9441"
           transform="translate(302.2939,318.2686)">
          <path
             d="M 0,0 C -45.045,20.194 -74.044,60.036 -83.408,96.78 -95.43,143.959 -79.499,190.687 -70.5,233.559 -52.922,203.319 7.897,176.826 32.19,126.922 48.487,93.443 52.772,41.746 0,0"
             style="fill:#52b136;fill-opacity:1;fill-rule:evenodd;stroke:none"
             id="path9443" />
        </g>
        <g
           id="g9445"
           transform="translate(302.2939,318.2686)">
          <path
             d="m 0,0 c -45.045,20.194 -74.044,60.036 -83.408,96.78 -2.421,9.502 -3.707,18.985 -4.146,28.423 14.129,-2.143 28.116,-5.832 40.984,-12.491 18.744,-9.7 37.919,-26.917 46.407,-52.556 4.655,21.804 14.107,41.259 26.046,55.989 2.377,2.934 4.863,5.718 7.439,8.373 C 48.656,91.005 51.527,40.761 0,0"
             style="fill:#49a338;fill-opacity:1;fill-rule:evenodd;stroke:none"
             id="path9447" />
        </g>
        <g
           id="g9449"
           transform="translate(302.2939,318.2686)">
          <path
             d="M 0,0 C -28.16,12.624 -50.048,32.927 -64.788,55.35 -41.102,49.105 -17.483,32.877 0,0"
             style="fill:#47a338;fill-opacity:1;fill-rule:evenodd;stroke:none"
             id="path9451" />
        </g>
        <g
           id="g9453"
           transform="translate(299.5864,331.1724)">
          <path
             d="m 0,0 c 4.153,12.968 5.239,25.076 4.157,36.609 9.255,13.81 28.876,20.44 23.991,44.043 C 26.541,56.954 12.969,55.094 2.838,45.775 -2.08,71.136 -16.809,93.96 -31.068,117.523 c 3.87,16.665 18.044,29.818 6.707,51.662 4.815,-19.566 -5.644,-30.621 -10.986,-44.526 -12.294,20.76 -23.438,42.336 -26.566,66.918 0.538,-36.734 19.395,-69.352 36.252,-101.482 -17.964,-8.786 -33.631,10.544 -50.528,14.822 18.934,-7.435 26.027,-30.615 55.378,-24.199 C -7.449,54.39 3.235,28.152 0,0"
             style="fill:#408f36;fill-opacity:1;fill-rule:evenodd;stroke:none"
             id="path9455" />
        </g>
        <g
           id="g9457"
           transform="translate(299.5864,331.1724)">
          <path
             d="m 0,0 c 4.153,12.968 5.239,25.076 4.157,36.609 9.255,13.81 28.876,20.44 23.991,44.043 C 26.541,56.954 12.969,55.094 2.838,45.775 c -0.099,0.512 -0.204,1.021 -0.31,1.53 -6,18.08 -17.313,31.967 -30.039,41.982 -17.196,-6.66 -32.363,11.5 -48.678,15.63 18.934,-7.435 26.027,-30.615 55.378,-24.199 C -7.449,54.39 3.235,28.152 0,0"
             style="fill:#377831;fill-opacity:1;fill-rule:evenodd;stroke:none"
             id="path9459" />
        </g>
        <g
           id="g9461"
           transform="translate(302.2939,318.2686)">
          <path
             d="m 0,0 c -20.193,-45.044 -60.036,-74.044 -96.779,-83.406 -47.179,-12.023 -93.908,3.909 -136.779,12.908 30.241,17.578 56.733,78.396 106.637,102.69 C -93.442,48.489 -41.746,52.774 0,0"
             style="fill:#52b136;fill-opacity:1;fill-rule:evenodd;stroke:none"
             id="path9463" />
        </g>
        <g
           id="g9465"
           transform="translate(302.2939,318.2686)">
          <path
             d="m 0,0 c -20.193,-45.044 -60.036,-74.044 -96.779,-83.406 -9.502,-2.422 -18.986,-3.708 -28.423,-4.147 2.143,14.128 5.831,28.116 12.49,40.986 9.701,18.742 26.918,37.916 52.557,46.406 -21.804,4.655 -41.26,14.107 -55.989,26.045 -2.935,2.378 -5.718,4.863 -8.373,7.438 C -91.004,48.657 -40.759,51.528 0,0"
             style="fill:#49a338;fill-opacity:1;fill-rule:evenodd;stroke:none"
             id="path9467" />
        </g>
        <g
           id="g9469"
           transform="translate(302.2939,318.2686)">
          <path
             d="M 0,0 C -12.624,-28.158 -32.925,-50.047 -55.349,-64.787 -49.104,-41.101 -32.876,-17.483 0,0"
             style="fill:#47a338;fill-opacity:1;fill-rule:evenodd;stroke:none"
             id="path9471" />
        </g>
        <g
           id="g9473"
           transform="translate(289.3921,315.562)">
          <path
             d="m 0,0 c -12.969,4.153 -25.077,5.238 -36.61,4.157 -13.81,9.256 -20.441,28.877 -44.043,23.992 23.697,-1.608 25.557,-15.181 34.877,-25.31 -25.361,-4.919 -48.184,-19.647 -71.748,-33.908 -16.665,3.869 -29.818,18.045 -51.663,6.708 19.567,4.816 30.621,-5.643 44.526,-10.987 -20.758,-12.292 -42.335,-23.438 -66.917,-26.564 36.733,0.537 69.352,19.393 101.483,36.251 8.785,-17.965 -10.545,-33.631 -14.824,-50.528 7.436,18.935 30.617,26.028 24.201,55.376 C -54.391,-7.449 -28.154,3.236 0,0"
             style="fill:#408f36;fill-opacity:1;fill-rule:evenodd;stroke:none"
             id="path9475" />
        </g>
        <g
           id="g9477"
           transform="translate(289.3921,315.562)">
          <path
             d="m 0,0 c -12.969,4.153 -25.077,5.238 -36.61,4.157 -13.81,9.256 -20.441,28.877 -44.043,23.992 23.697,-1.608 25.557,-15.181 34.877,-25.31 -0.512,-0.101 -1.02,-0.205 -1.53,-0.312 -18.08,-5.998 -31.967,-17.313 -41.982,-30.037 6.66,-17.198 -11.5,-32.365 -15.631,-48.679 7.436,18.935 30.617,26.028 24.201,55.376 C -54.391,-7.449 -28.154,3.236 0,0"
             style="fill:#377831;fill-opacity:1;fill-rule:evenodd;stroke:none"
             id="path9479" />
        </g>
        <g
           id="g9481"
           transform="translate(302.2939,318.2686)">
          <path
             d="m 0,0 c 45.045,-20.192 74.044,-60.034 83.408,-96.777 12.022,-47.18 -3.911,-93.909 -12.909,-136.781 -17.578,30.242 -78.397,56.734 -102.69,106.638 C -48.488,-93.441 -52.772,-41.744 0,0"
             style="fill:#52b136;fill-opacity:1;fill-rule:evenodd;stroke:none"
             id="path9483" />
        </g>
        <g
           id="g9485"
           transform="translate(302.2939,318.2686)">
          <path
             d="m 0,0 c 45.045,-20.192 74.044,-60.034 83.408,-96.777 2.42,-9.503 3.706,-18.986 4.146,-28.423 -14.129,2.141 -28.116,5.83 -40.985,12.489 -18.744,9.701 -37.919,26.918 -46.408,52.558 -4.653,-21.805 -14.107,-41.261 -26.044,-55.99 -2.377,-2.934 -4.863,-5.717 -7.439,-8.373 C -48.657,-91.003 -51.527,-40.759 0,0"
             style="fill:#49a338;fill-opacity:1;fill-rule:evenodd;stroke:none"
             id="path9487" />
        </g>
        <g
           id="g9489"
           transform="translate(302.2939,318.2686)">
          <path
             d="M 0,0 C 28.159,-12.623 50.047,-32.924 64.789,-55.349 41.102,-49.104 17.483,-32.876 0,0"
             style="fill:#47a338;fill-opacity:1;fill-rule:evenodd;stroke:none"
             id="path9491" />
        </g>
        <g
           id="g9493"
           transform="translate(305.001,305.3677)">
          <path
             d="m 0,0 c -4.152,-12.969 -5.238,-25.077 -4.158,-36.61 -9.254,-13.81 -28.875,-20.441 -23.991,-44.043 1.608,23.696 15.18,25.559 25.311,34.876 4.918,-25.36 19.647,-48.184 33.906,-71.747 -3.869,-16.665 -18.044,-29.818 -6.708,-51.662 -4.814,19.566 5.644,30.62 10.988,44.526 12.293,-20.76 23.437,-42.336 26.565,-66.918 -0.539,36.734 -19.395,69.353 -36.253,101.484 17.966,8.784 33.632,-10.546 50.528,-14.825 -18.933,7.436 -26.026,30.616 -55.376,24.202 C 7.45,-54.391 -3.236,-28.153 0,0"
             style="fill:#408f36;fill-opacity:1;fill-rule:evenodd;stroke:none"
             id="path9495" />
        </g>
        <g
           id="g9497"
           transform="translate(305.001,305.3677)">
          <path
             d="m 0,0 c -4.152,-12.969 -5.238,-25.077 -4.158,-36.61 -9.254,-13.81 -28.875,-20.441 -23.991,-44.043 1.608,23.696 15.18,25.559 25.311,34.876 0.099,-0.511 0.203,-1.019 0.311,-1.528 5.998,-18.08 17.312,-31.967 30.037,-41.983 17.197,6.66 32.365,-11.5 48.678,-15.631 -18.933,7.436 -26.026,30.616 -55.376,24.202 C 7.45,-54.391 -3.236,-28.153 0,0"
             style="fill:#377831;fill-opacity:1;fill-rule:evenodd;stroke:none"
             id="path9499" />
        </g>
        <g
           id="g9501"
           transform="translate(302.2939,318.2686)">
          <path
             d="M 0,0 C 20.192,45.046 60.035,74.045 96.778,83.408 143.958,95.431 190.686,79.5 233.558,70.5 203.317,52.922 176.825,-7.897 126.922,-32.189 93.442,-48.486 41.745,-52.772 0,0"
             style="fill:#52b136;fill-opacity:1;fill-rule:evenodd;stroke:none"
             id="path9503" />
        </g>
        <g
           id="g9505"
           transform="translate(302.2939,318.2686)">
          <path
             d="m 0,0 c 20.192,45.046 60.035,74.045 96.778,83.408 9.502,2.421 18.986,3.707 28.423,4.146 C 123.059,73.426 119.371,59.438 112.712,46.57 103.011,27.825 85.793,8.651 60.154,0.163 c 21.805,-4.655 41.26,-14.107 55.991,-26.045 2.932,-2.377 5.717,-4.862 8.372,-7.438 C 91.004,-48.654 40.759,-51.526 0,0"
             style="fill:#49a338;fill-opacity:1;fill-rule:evenodd;stroke:none"
             id="path9507" />
        </g>
        <g
           id="g9509"
           transform="translate(315.1963,320.9771)">
          <path
             d="m 0,0 c 12.968,-4.154 25.077,-5.239 36.609,-4.158 13.81,-9.255 20.442,-28.875 44.043,-23.991 -23.697,1.608 -25.557,15.179 -34.876,25.311 25.361,4.918 48.184,19.645 71.747,33.905 16.664,-3.869 29.819,-18.043 51.663,-6.707 -19.568,-4.814 -30.622,5.644 -44.526,10.987 20.759,12.294 42.335,23.438 66.917,26.565 C 154.845,61.374 122.226,42.519 90.095,25.66 81.31,43.625 100.64,59.292 104.917,76.188 97.481,57.255 74.302,50.161 80.717,20.811 54.39,7.45 28.153,-3.236 0,0"
             style="fill:#408f36;fill-opacity:1;fill-rule:evenodd;stroke:none"
             id="path9511" />
        </g>
        <g
           id="g9513"
           transform="translate(315.1963,320.9771)">
          <path
             d="m 0,0 c 12.968,-4.154 25.077,-5.239 36.609,-4.158 13.81,-9.255 20.442,-28.875 44.043,-23.991 -23.697,1.608 -25.557,15.179 -34.876,25.311 0.51,0.098 1.02,0.204 1.529,0.31 18.081,5.999 31.967,17.313 41.982,30.038 -6.659,17.197 11.499,32.365 15.63,48.678 C 97.481,57.255 74.302,50.161 80.717,20.811 54.39,7.45 28.153,-3.236 0,0"
             style="fill:#377831;fill-opacity:1;fill-rule:evenodd;stroke:none"
             id="path9515" />
        </g>
        <g
           id="g9517"
           transform="translate(302.2939,318.2686)">
          <path
             d="m 0,0 c 16.366,-42.963 9.226,-88.302 -8.807,-118.665 -23.152,-38.989 -64.419,-59.272 -98.58,-81.58 8.34,31.492 -14.267,88.995 2.599,137.859 C -93.473,-29.604 -62.248,7.263 0,0"
             style="fill:#70c82d;fill-opacity:1;fill-rule:evenodd;stroke:none"
             id="path9519" />
        </g>
        <g
           id="g9521"
           transform="translate(302.2939,318.2686)">
          <path
             d="m 0,0 c 16.366,-42.963 9.226,-88.302 -8.807,-118.665 -3.117,-5.253 -6.568,-10.163 -10.283,-14.787 -7.348,19.436 -26.87,44.288 -28.13,72.132 -0.606,13.38 2.786,29.379 14.194,42.17 -13.465,-4.349 -27.158,-5.316 -39.04,-3.419 -1.996,0.319 -3.957,0.714 -5.889,1.173 C -60.582,-5.942 -35.274,4.115 0,0"
             style="fill:#5fbb33;fill-opacity:1;fill-rule:evenodd;stroke:none"
             id="path9523" />
        </g>
        <g
           id="g9525"
           transform="translate(295.5806,307.9888)">
          <path
             d="m 0,0 c -11.277,-5.805 -19.966,-13.065 -26.85,-21.372 -15.189,-2.999 -32.477,5.555 -44.805,-13.205 16.665,14.547 26.829,6.834 39.638,6.3 -13.463,-19.941 -18.794,-44.672 -24.921,-69.583 -13.524,-8.426 -31.522,-7.753 -38.442,-29.604 9.716,16.056 23.884,16.448 36.56,22.087 -5.576,-21.768 -12.445,-43.317 -26.576,-61.566 23.838,24.547 32.902,58.446 42.96,90.709 17.618,-6.046 15.204,-29.093 23.515,-43.039 -7.573,17.367 3.022,37.306 -20.532,52.408 C -30.915,-40.726 -20.673,-16.411 0,0"
             style="fill:#4fac37;fill-opacity:1;fill-rule:evenodd;stroke:none"
             id="path9527" />
        </g>
        <g
           id="g9529"
           transform="translate(273.3062,205.252)">
          <path
             d="M 0,0 C -0.895,12.134 -0.876,24.395 -15.312,34.611 -11.77,22.227 -5.629,10.606 0,0 M 22.274,102.737 C 10.997,96.932 2.309,89.672 -4.575,81.365 c -2.665,-0.526 -5.397,-0.697 -8.153,-0.721 -0.864,-1.855 -1.615,-3.733 -2.261,-5.619 1.714,-0.276 3.454,-0.491 5.247,-0.565 -3.221,-4.772 -5.976,-9.816 -8.388,-15.072 -0.188,-2.629 -0.215,-5.205 -0.102,-7.692 0.202,-4.49 0.882,-8.904 1.909,-13.228 8.374,25.148 18.611,48.403 38.597,64.269"
             style="fill:#439837;fill-opacity:1;fill-rule:evenodd;stroke:none"
             id="path9531" />
        </g>
        <g
           id="g9533"
           transform="translate(302.2939,318.2686)">
          <path
             d="m 0,0 c 42.965,16.368 88.302,9.228 118.667,-8.806 38.989,-23.152 59.272,-64.418 81.579,-98.58 -31.493,8.339 -88.995,-14.266 -137.858,2.6 C 29.607,-93.472 -7.262,-62.245 0,0"
             style="fill:#70c82d;fill-opacity:1;fill-rule:evenodd;stroke:none"
             id="path9535" />
        </g>
        <g
           id="g9537"
           transform="translate(302.2939,318.2686)">
          <path
             d="m 0,0 c 42.965,16.368 88.302,9.228 118.667,-8.806 5.251,-3.119 10.161,-6.568 14.785,-10.283 -19.435,-7.348 -44.288,-26.87 -72.131,-28.131 -13.381,-0.604 -29.38,2.786 -42.171,14.195 4.349,-13.463 5.316,-27.158 3.42,-39.039 -0.319,-1.997 -0.715,-3.957 -1.174,-5.89 C 5.942,-60.582 -4.115,-35.272 0,0"
             style="fill:#5fbb33;fill-opacity:1;fill-rule:evenodd;stroke:none"
             id="path9539" />
        </g>
        <g
           id="g9541"
           transform="translate(312.5742,311.5566)">
          <path
             d="m 0,0 c 5.806,-11.277 13.064,-19.967 21.372,-26.849 3,-15.191 -5.556,-32.478 13.205,-44.807 -14.548,16.666 -6.834,26.83 -6.299,39.639 19.94,-13.462 44.671,-18.794 69.581,-24.921 8.427,-13.524 7.753,-31.521 29.606,-38.443 -16.058,9.716 -16.449,23.884 -22.088,36.56 21.768,-5.575 43.317,-12.445 61.565,-26.574 -24.546,23.836 -58.445,32.9 -90.709,42.959 6.046,17.618 29.094,15.204 43.039,23.514 C 101.906,-26.494 81.969,-15.9 66.865,-39.454 40.726,-30.915 16.41,-20.674 0,0"
             style="fill:#4fac37;fill-opacity:1;fill-rule:evenodd;stroke:none"
             id="path9543" />
        </g>
        <g
           id="g9545"
           transform="translate(415.3105,289.2832)">
          <path
             d="M 0,0 C -12.133,-0.897 -24.395,-0.879 -34.611,-15.314 -22.225,-11.77 -10.606,-5.631 0,0 m -102.736,22.272 c 5.805,-11.276 13.064,-19.966 21.373,-26.847 0.526,-2.666 0.695,-5.399 0.721,-8.155 1.855,-0.864 3.731,-1.615 5.618,-2.26 0.275,1.714 0.491,3.454 0.566,5.247 4.77,-3.222 9.815,-5.976 15.071,-8.388 2.629,-0.189 5.206,-0.216 7.692,-0.103 4.491,0.204 8.904,0.883 13.228,1.911 -25.147,8.373 -48.404,18.609 -64.269,38.595"
             style="fill:#439837;fill-opacity:1;fill-rule:evenodd;stroke:none"
             id="path9547" />
        </g>
        <g
           id="g9549"
           transform="translate(302.2939,318.2686)">
          <path
             d="m 0,0 c -16.367,42.966 -9.226,88.303 8.806,118.667 23.153,38.99 64.42,59.271 98.581,81.579 C 99.048,168.754 121.654,111.252 104.788,62.389 93.473,29.606 62.247,-7.262 0,0"
             style="fill:#70c82d;fill-opacity:1;fill-rule:evenodd;stroke:none"
             id="path9551" />
        </g>
        <g
           id="g9553"
           transform="translate(302.2939,318.2686)">
          <path
             d="m 0,0 c -16.368,42.966 -9.226,88.303 8.806,118.667 3.119,5.253 6.569,10.163 10.284,14.787 7.347,-19.436 26.87,-44.289 28.13,-72.131 0.606,-13.381 -2.786,-29.38 -14.195,-42.172 13.465,4.35 27.159,5.317 39.04,3.419 1.997,-0.317 3.957,-0.714 5.889,-1.174 C 60.581,5.943 35.273,-4.115 0,0"
             style="fill:#5fbb33;fill-opacity:1;fill-rule:evenodd;stroke:none"
             id="path9555" />
        </g>
        <g
           id="g9557"
           transform="translate(309.0078,328.5503)">
          <path
             d="m 0,0 c 11.276,5.805 19.965,13.064 26.849,21.372 15.19,3 32.477,-5.556 44.805,13.205 -16.666,-14.547 -26.829,-6.835 -39.637,-6.3 13.462,19.941 18.794,44.672 24.921,69.581 13.522,8.427 31.521,7.755 38.441,29.607 -9.715,-16.057 -23.883,-16.449 -36.56,-22.089 5.576,21.769 12.446,43.317 26.577,61.566 C 61.557,142.396 52.493,108.497 42.436,76.233 24.817,82.279 27.232,105.327 18.92,119.273 26.493,101.906 15.898,81.968 39.452,66.864 30.914,40.726 20.672,16.409 0,0"
             style="fill:#4fac37;fill-opacity:1;fill-rule:evenodd;stroke:none"
             id="path9559" />
        </g>
        <g
           id="g9561"
           transform="translate(331.2813,431.2866)">
          <path
             d="M 0,0 C 0.896,-12.133 0.877,-24.395 15.311,-34.611 11.77,-22.227 5.629,-10.606 0,0 m -22.273,-102.736 c 11.276,5.805 19.965,13.065 26.848,21.372 2.666,0.526 5.397,0.696 8.153,0.72 0.865,1.855 1.616,3.732 2.261,5.619 -1.714,0.276 -3.454,0.49 -5.246,0.566 3.22,4.77 5.975,9.816 8.387,15.071 0.188,2.63 0.215,5.207 0.102,7.693 -0.203,4.49 -0.882,8.902 -1.909,13.227 -8.374,-25.148 -18.611,-48.404 -38.596,-64.268"
             style="fill:#439837;fill-opacity:1;fill-rule:evenodd;stroke:none"
             id="path9563" />
        </g>
        <g
           id="g9565"
           transform="translate(302.2939,318.2686)">
          <path
             d="m 0,0 c -42.964,-16.365 -88.302,-9.226 -118.667,8.807 -38.989,23.153 -59.271,64.42 -81.579,98.581 31.492,-8.34 88.994,14.267 137.858,-2.599 C -29.606,93.473 7.263,62.249 0,0"
             style="fill:#70c82d;fill-opacity:1;fill-rule:evenodd;stroke:none"
             id="path9567" />
        </g>
        <g
           id="g9569"
           transform="translate(302.2939,318.2686)">
          <path
             d="m 0,0 c -42.964,-16.365 -88.302,-9.225 -118.667,8.807 -5.252,3.118 -10.162,6.569 -14.786,10.284 19.436,7.348 44.289,26.87 72.131,28.13 13.381,0.606 29.38,-2.786 42.172,-14.194 -4.35,13.464 -5.316,27.157 -3.421,39.039 0.32,1.997 0.715,3.958 1.176,5.89 C -5.942,60.583 4.115,35.274 0,0"
             style="fill:#5fbb33;fill-opacity:1;fill-rule:evenodd;stroke:none"
             id="path9571" />
        </g>
        <g
           id="g9573"
           transform="translate(292.0132,324.9839)">
          <path
             d="m 0,0 c -5.806,11.275 -13.064,19.965 -21.372,26.849 -2.999,15.19 5.556,32.477 -13.205,44.805 14.548,-16.666 6.835,-26.829 6.3,-39.638 -19.941,13.463 -44.672,18.794 -69.582,24.922 -8.427,13.522 -7.754,31.52 -29.606,38.44 16.056,-9.715 16.449,-23.883 22.089,-36.56 -21.769,5.576 -43.318,12.447 -61.567,26.576 24.547,-23.837 58.446,-32.901 90.709,-42.959 -6.045,-17.617 -29.093,-15.205 -43.038,-23.515 17.366,7.572 37.304,-3.023 52.407,20.533 C -40.726,30.914 -16.409,20.671 0,0"
             style="fill:#4fac37;fill-opacity:1;fill-rule:evenodd;stroke:none"
             id="path9575" />
        </g>
        <g
           id="g9577"
           transform="translate(189.2773,347.2573)">
          <path
             d="M 0,0 C 12.133,0.894 24.395,0.875 34.61,15.312 22.226,11.769 10.606,5.628 0,0 M 102.736,-22.273 C 96.93,-10.997 89.671,-2.309 81.364,4.576 c -0.527,2.666 -0.696,5.395 -0.722,8.152 -1.854,0.863 -3.731,1.615 -5.618,2.261 -0.275,-1.714 -0.491,-3.454 -0.566,-5.246 -4.77,3.22 -9.815,5.975 -15.071,8.387 -2.629,0.189 -5.206,0.215 -7.692,0.102 -4.491,-0.203 -8.903,-0.883 -13.228,-1.909 25.148,-8.374 48.405,-18.611 64.269,-38.596"
             style="fill:#439837;fill-opacity:1;fill-rule:evenodd;stroke:none"
             id="path9579" />
        </g>
        <g
           id="g9581"
           transform="translate(302.2939,318.2686)">
          <path
             d="m 0,0 c -17.947,-23.005 -44.909,-34.027 -67.32,-34.217 -28.776,-0.243 -53.35,15.495 -76.688,26.709 19.839,5.823 43.627,36.994 75.699,43.896 C -46.792,41.018 -16.514,36.183 0,0"
             style="fill:#8ad143;fill-opacity:1;fill-rule:evenodd;stroke:none"
             id="path9583" />
        </g>
        <g
           id="g9585"
           transform="translate(302.2939,318.2686)">
          <path
             d="M 0,0 C -13.053,-16.733 -30.874,-27.124 -48.246,-31.621 -40.749,-16.721 -26.052,-3.495 0,0"
             style="fill:#70c82d;fill-opacity:1;fill-rule:evenodd;stroke:none"
             id="path9587" />
        </g>
        <g
           id="g9589"
           transform="translate(294.5054,318.5356)">
          <path
             d="m 0,0 c -6.858,4.214 -13.654,6.546 -20.427,7.554 -6.62,7.26 -7.657,19.457 -21.893,19.985 13.375,-4.268 12.527,-12.32 16.446,-19.45 -15.25,0.755 -30.429,-4.478 -45.966,-9.337 -9.019,4.573 -14.57,14.564 -28.708,11.14 11.911,0.002 16.78,-7.562 24.008,-12.589 -13.651,-4.128 -27.608,-7.48 -42.159,-5.805 21.16,-4.875 42.544,1.344 63.365,6.487 2.508,-11.552 -10.798,-17.816 -15.638,-26.911 6.939,9.818 21.245,10.619 21.705,28.371 C -32.27,3.398 -15.702,5.831 0,0"
             style="fill:#65c430;fill-opacity:1;fill-rule:evenodd;stroke:none"
             id="path9591" />
        </g>
        <g
           id="g9593"
           transform="translate(302.2939,318.2686)">
          <path
             d="m 0,0 c 23.005,-17.947 34.028,-44.907 34.219,-67.318 0.242,-28.778 -15.495,-53.351 -26.711,-76.689 -5.822,19.838 -36.993,43.627 -43.895,75.699 C -41.017,-46.792 -36.181,-16.514 0,0"
             style="fill:#81cd3a;fill-opacity:1;fill-rule:evenodd;stroke:none"
             id="path9595" />
        </g>
        <g
           id="g9597"
           transform="translate(302.2939,318.2686)">
          <path
             d="M 0,0 C 16.921,-13.2 27.36,-31.277 31.773,-48.834 16.7,-41.291 3.301,-26.431 0,0"
             style="fill:#76c92e;fill-opacity:1;fill-rule:evenodd;stroke:none"
             id="path9599" />
        </g>
        <g
           id="g9601"
           transform="translate(302.0264,310.4814)">
          <path
             d="m 0,0 c -4.213,-6.858 -6.545,-13.654 -7.551,-20.427 -7.261,-6.62 -19.459,-7.657 -19.986,-21.893 4.267,13.376 12.32,12.526 19.449,16.446 -0.755,-15.25 4.477,-30.429 9.338,-45.967 -4.573,-9.019 -14.565,-14.568 -11.14,-28.707 -0.002,11.91 7.56,16.78 12.588,24.007 4.127,-13.65 7.479,-27.606 5.805,-42.158 4.876,21.161 -1.345,42.543 -6.487,63.365 11.551,2.507 17.816,-10.798 26.911,-15.638 -9.819,6.94 -10.618,21.245 -28.37,21.705 C -3.398,-32.27 -5.83,-15.703 0,0"
             style="fill:#65c430;fill-opacity:1;fill-rule:evenodd;stroke:none"
             id="path9603" />
        </g>
        <g
           id="g9605"
           transform="translate(302.2939,318.2686)">
          <path
             d="M 0,0 C 17.947,23.007 44.907,34.03 67.32,34.22 96.096,34.462 120.669,18.725 144.008,7.508 124.17,1.687 100.38,-29.484 68.31,-36.386 46.793,-41.017 16.514,-36.181 0,0"
             style="fill:#8ad143;fill-opacity:1;fill-rule:evenodd;stroke:none"
             id="path9607" />
        </g>
        <g
           id="g9609"
           transform="translate(302.2939,318.2686)">
          <path
             d="M 0,0 C 13.124,16.825 31.068,27.24 48.529,31.696 41.009,16.712 26.234,3.404 0,0"
             style="fill:#70c82d;fill-opacity:1;fill-rule:evenodd;stroke:none"
             id="path9611" />
        </g>
        <g
           id="g9613"
           transform="translate(310.0811,318.0029)">
          <path
             d="m 0,0 c 6.858,-4.214 13.655,-6.546 20.428,-7.552 6.62,-7.262 7.657,-19.46 21.894,-19.986 -13.376,4.266 -12.528,12.319 -16.447,19.449 15.251,-0.755 30.429,4.478 45.967,9.338 9.019,-4.572 14.569,-14.565 28.707,-11.142 C 88.638,-9.894 83.77,-2.332 76.541,2.698 90.191,6.825 104.149,10.177 118.7,8.503 97.54,13.378 76.156,7.158 55.334,2.015 52.827,13.566 66.133,19.832 70.974,28.927 64.034,19.107 49.728,18.307 49.268,0.555 32.271,-3.4 15.703,-5.83 0,0"
             style="fill:#65c430;fill-opacity:1;fill-rule:evenodd;stroke:none"
             id="path9615" />
        </g>
        <g
           id="g9617"
           transform="translate(302.2939,318.2686)">
          <path
             d="m 0,0 c -23.006,17.947 -34.03,44.909 -34.218,67.32 -0.243,28.778 15.495,53.351 26.71,76.689 C -1.686,124.17 29.484,100.382 36.388,68.31 41.017,46.793 36.181,16.515 0,0"
             style="fill:#81cd3a;fill-opacity:1;fill-rule:evenodd;stroke:none"
             id="path9619" />
        </g>
        <g
           id="g9621"
           transform="translate(302.5596,326.0576)">
          <path
             d="m 0,0 c 4.214,6.857 6.546,13.655 7.554,20.426 7.26,6.621 19.458,7.658 19.984,21.895 C 23.272,28.946 15.219,29.793 8.089,25.875 8.844,41.125 3.611,56.303 -1.248,71.841 3.324,80.86 13.316,86.41 9.892,100.548 9.893,88.637 2.331,83.769 -2.697,76.541 -6.825,90.191 -10.176,104.148 -8.503,118.7 -13.378,97.539 -7.158,76.155 -2.015,55.334 -13.566,52.826 -19.831,66.132 -28.925,70.972 -19.107,64.033 -18.306,49.727 -0.556,49.268 3.399,32.27 5.83,15.703 0,0"
             style="fill:#65c430;fill-opacity:1;fill-rule:evenodd;stroke:none"
             id="path9623" />
        </g>
      </g>
    </g>
  </g>
</svg>
